<mxfile host="app.diagrams.net" modified="2020-12-01T18:48:12.063Z" agent="5.0 (Windows NT 10.0; Win64; x64) AppleWebKit/537.36 (KHTML, like Gecko) Chrome/86.0.4240.198 Safari/537.36" etag="ND9se_TvA9GrJ1sf-oIo" version="13.10.2" type="github">
  <diagram id="R2lEEEUBdFMjLlhIrx00" name="Page-1">
    <mxGraphModel dx="1422" dy="705" grid="1" gridSize="10" guides="1" tooltips="1" connect="1" arrows="1" fold="1" page="1" pageScale="1" pageWidth="850" pageHeight="1100" math="0" shadow="0" extFonts="Permanent Marker^https://fonts.googleapis.com/css?family=Permanent+Marker">
      <root>
        <mxCell id="0" />
        <mxCell id="1" parent="0" />
        <mxCell id="C-vyLk0tnHw3VtMMgP7b-2" value="claim" style="shape=table;startSize=30;container=1;collapsible=1;childLayout=tableLayout;fixedRows=1;rowLines=0;fontStyle=1;align=center;resizeLast=1;" parent="1" vertex="1">
          <mxGeometry x="270" y="10" width="250" height="150" as="geometry" />
        </mxCell>
        <mxCell id="C-vyLk0tnHw3VtMMgP7b-3" value="" style="shape=partialRectangle;collapsible=0;dropTarget=0;pointerEvents=0;fillColor=none;points=[[0,0.5],[1,0.5]];portConstraint=eastwest;top=0;left=0;right=0;bottom=1;" parent="C-vyLk0tnHw3VtMMgP7b-2" vertex="1">
          <mxGeometry y="30" width="250" height="30" as="geometry" />
        </mxCell>
        <mxCell id="C-vyLk0tnHw3VtMMgP7b-4" value="PK" style="shape=partialRectangle;overflow=hidden;connectable=0;fillColor=none;top=0;left=0;bottom=0;right=0;fontStyle=1;" parent="C-vyLk0tnHw3VtMMgP7b-3" vertex="1">
          <mxGeometry width="30" height="30" as="geometry" />
        </mxCell>
        <mxCell id="C-vyLk0tnHw3VtMMgP7b-5" value="claim_idÂ int NOT NULL " style="shape=partialRectangle;overflow=hidden;connectable=0;fillColor=none;top=0;left=0;bottom=0;right=0;align=left;spacingLeft=6;fontStyle=5;" parent="C-vyLk0tnHw3VtMMgP7b-3" vertex="1">
          <mxGeometry x="30" width="220" height="30" as="geometry" />
        </mxCell>
        <mxCell id="C-vyLk0tnHw3VtMMgP7b-6" value="" style="shape=partialRectangle;collapsible=0;dropTarget=0;pointerEvents=0;fillColor=none;points=[[0,0.5],[1,0.5]];portConstraint=eastwest;top=0;left=0;right=0;bottom=0;" parent="C-vyLk0tnHw3VtMMgP7b-2" vertex="1">
          <mxGeometry y="60" width="250" height="30" as="geometry" />
        </mxCell>
        <mxCell id="C-vyLk0tnHw3VtMMgP7b-7" value="FK1" style="shape=partialRectangle;overflow=hidden;connectable=0;fillColor=none;top=0;left=0;bottom=0;right=0;" parent="C-vyLk0tnHw3VtMMgP7b-6" vertex="1">
          <mxGeometry width="30" height="30" as="geometry" />
        </mxCell>
        <mxCell id="C-vyLk0tnHw3VtMMgP7b-8" value="claim_text string NOT NULL" style="shape=partialRectangle;overflow=hidden;connectable=0;fillColor=none;top=0;left=0;bottom=0;right=0;align=left;spacingLeft=6;" parent="C-vyLk0tnHw3VtMMgP7b-6" vertex="1">
          <mxGeometry x="30" width="220" height="30" as="geometry" />
        </mxCell>
        <mxCell id="C-vyLk0tnHw3VtMMgP7b-9" value="" style="shape=partialRectangle;collapsible=0;dropTarget=0;pointerEvents=0;fillColor=none;points=[[0,0.5],[1,0.5]];portConstraint=eastwest;top=0;left=0;right=0;bottom=0;" parent="C-vyLk0tnHw3VtMMgP7b-2" vertex="1">
          <mxGeometry y="90" width="250" height="30" as="geometry" />
        </mxCell>
        <mxCell id="C-vyLk0tnHw3VtMMgP7b-10" value="" style="shape=partialRectangle;overflow=hidden;connectable=0;fillColor=none;top=0;left=0;bottom=0;right=0;" parent="C-vyLk0tnHw3VtMMgP7b-9" vertex="1">
          <mxGeometry width="30" height="30" as="geometry" />
        </mxCell>
        <mxCell id="C-vyLk0tnHw3VtMMgP7b-11" value="claim_reference TBD NOT NULL" style="shape=partialRectangle;overflow=hidden;connectable=0;fillColor=none;top=0;left=0;bottom=0;right=0;align=left;spacingLeft=6;" parent="C-vyLk0tnHw3VtMMgP7b-9" vertex="1">
          <mxGeometry x="30" width="220" height="30" as="geometry" />
        </mxCell>
        <mxCell id="-S6zmdSXZBDmXFs0lJA3-3" value="" style="group" parent="1" vertex="1" connectable="0">
          <mxGeometry x="10" y="10" width="250" height="220" as="geometry" />
        </mxCell>
        <mxCell id="C-vyLk0tnHw3VtMMgP7b-23" value="rules" style="shape=table;startSize=30;container=1;collapsible=1;childLayout=tableLayout;fixedRows=1;rowLines=0;fontStyle=1;align=center;resizeLast=1;" parent="-S6zmdSXZBDmXFs0lJA3-3" vertex="1">
          <mxGeometry width="250" height="150" as="geometry" />
        </mxCell>
        <mxCell id="C-vyLk0tnHw3VtMMgP7b-24" value="" style="shape=partialRectangle;collapsible=0;dropTarget=0;pointerEvents=0;fillColor=none;points=[[0,0.5],[1,0.5]];portConstraint=eastwest;top=0;left=0;right=0;bottom=1;" parent="C-vyLk0tnHw3VtMMgP7b-23" vertex="1">
          <mxGeometry y="30" width="250" height="30" as="geometry" />
        </mxCell>
        <mxCell id="C-vyLk0tnHw3VtMMgP7b-25" value="PK" style="shape=partialRectangle;overflow=hidden;connectable=0;fillColor=none;top=0;left=0;bottom=0;right=0;fontStyle=1;" parent="C-vyLk0tnHw3VtMMgP7b-24" vertex="1">
          <mxGeometry width="30" height="30" as="geometry" />
        </mxCell>
        <mxCell id="C-vyLk0tnHw3VtMMgP7b-26" value="rule_id int NOT NULL " style="shape=partialRectangle;overflow=hidden;connectable=0;fillColor=none;top=0;left=0;bottom=0;right=0;align=left;spacingLeft=6;fontStyle=5;" parent="C-vyLk0tnHw3VtMMgP7b-24" vertex="1">
          <mxGeometry x="30" width="220" height="30" as="geometry" />
        </mxCell>
        <mxCell id="C-vyLk0tnHw3VtMMgP7b-27" value="" style="shape=partialRectangle;collapsible=0;dropTarget=0;pointerEvents=0;fillColor=none;points=[[0,0.5],[1,0.5]];portConstraint=eastwest;top=0;left=0;right=0;bottom=0;" parent="C-vyLk0tnHw3VtMMgP7b-23" vertex="1">
          <mxGeometry y="60" width="250" height="30" as="geometry" />
        </mxCell>
        <mxCell id="C-vyLk0tnHw3VtMMgP7b-28" value="" style="shape=partialRectangle;overflow=hidden;connectable=0;fillColor=none;top=0;left=0;bottom=0;right=0;" parent="C-vyLk0tnHw3VtMMgP7b-27" vertex="1">
          <mxGeometry width="30" height="30" as="geometry" />
        </mxCell>
        <mxCell id="C-vyLk0tnHw3VtMMgP7b-29" value="token text NOT NULL" style="shape=partialRectangle;overflow=hidden;connectable=0;fillColor=none;top=0;left=0;bottom=0;right=0;align=left;spacingLeft=6;" parent="C-vyLk0tnHw3VtMMgP7b-27" vertex="1">
          <mxGeometry x="30" width="220" height="30" as="geometry" />
        </mxCell>
        <mxCell id="-S6zmdSXZBDmXFs0lJA3-1" value="operation text NOT NULL" style="shape=partialRectangle;overflow=hidden;connectable=0;fillColor=none;top=0;left=0;bottom=0;right=0;align=left;spacingLeft=6;" parent="-S6zmdSXZBDmXFs0lJA3-3" vertex="1">
          <mxGeometry x="30" y="90" width="220" height="30" as="geometry" />
        </mxCell>
        <mxCell id="-S6zmdSXZBDmXFs0lJA3-2" value="corrected_token text NOT NULL" style="shape=partialRectangle;overflow=hidden;connectable=0;fillColor=none;top=0;left=0;bottom=0;right=0;align=left;spacingLeft=6;" parent="-S6zmdSXZBDmXFs0lJA3-3" vertex="1">
          <mxGeometry x="30" y="120" width="220" height="30" as="geometry" />
        </mxCell>
        <mxCell id="ylz1b4MlOkDqMDgzkdlP-1" value="DMP Form Page" style="whiteSpace=wrap;html=1;aspect=fixed;strokeWidth=3;" vertex="1" parent="1">
          <mxGeometry x="120" y="470" width="70" height="70" as="geometry" />
        </mxCell>
        <mxCell id="ylz1b4MlOkDqMDgzkdlP-6" value="" style="endArrow=classic;startArrow=classic;html=1;exitX=1;exitY=0.5;exitDx=0;exitDy=0;entryX=0;entryY=0.5;entryDx=0;entryDy=0;entryPerimeter=0;" edge="1" parent="1" source="ylz1b4MlOkDqMDgzkdlP-21" target="ylz1b4MlOkDqMDgzkdlP-9">
          <mxGeometry width="50" height="50" relative="1" as="geometry">
            <mxPoint x="190" y="410" as="sourcePoint" />
            <mxPoint x="230" y="370" as="targetPoint" />
          </mxGeometry>
        </mxCell>
        <mxCell id="ylz1b4MlOkDqMDgzkdlP-9" value="Store Form Values" style="shape=cylinder3;whiteSpace=wrap;html=1;boundedLbl=1;backgroundOutline=1;size=15;" vertex="1" parent="1">
          <mxGeometry x="270" y="330" width="60" height="80" as="geometry" />
        </mxCell>
        <mxCell id="ylz1b4MlOkDqMDgzkdlP-11" value="Admin&lt;br&gt;Page" style="whiteSpace=wrap;html=1;aspect=fixed;strokeWidth=3;" vertex="1" parent="1">
          <mxGeometry x="120" y="680" width="70" height="70" as="geometry" />
        </mxCell>
        <mxCell id="ylz1b4MlOkDqMDgzkdlP-12" value="&lt;font style=&quot;font-size: 8px&quot;&gt;Corrections&lt;br&gt;Rules&lt;/font&gt;" style="shape=cylinder3;whiteSpace=wrap;html=1;boundedLbl=1;backgroundOutline=1;size=15;" vertex="1" parent="1">
          <mxGeometry x="480" y="690" width="70" height="60" as="geometry" />
        </mxCell>
        <mxCell id="ylz1b4MlOkDqMDgzkdlP-16" value="" style="endArrow=classic;html=1;exitX=1;exitY=0.5;exitDx=0;exitDy=0;entryX=0.457;entryY=1.1;entryDx=0;entryDy=0;entryPerimeter=0;" edge="1" parent="1" source="ylz1b4MlOkDqMDgzkdlP-19" target="ylz1b4MlOkDqMDgzkdlP-22">
          <mxGeometry width="50" height="50" relative="1" as="geometry">
            <mxPoint x="150" y="520" as="sourcePoint" />
            <mxPoint x="220" y="520" as="targetPoint" />
            <Array as="points">
              <mxPoint x="342" y="590" />
            </Array>
          </mxGeometry>
        </mxCell>
        <mxCell id="ylz1b4MlOkDqMDgzkdlP-18" value="Dictionary" style="shape=dataStorage;whiteSpace=wrap;html=1;fixedSize=1;" vertex="1" parent="1">
          <mxGeometry x="630" y="475" width="100" height="60" as="geometry" />
        </mxCell>
        <mxCell id="ylz1b4MlOkDqMDgzkdlP-19" value="Upload File" style="shape=process;whiteSpace=wrap;html=1;backgroundOutline=1;" vertex="1" parent="1">
          <mxGeometry x="115" y="560" width="80" height="60" as="geometry" />
        </mxCell>
        <mxCell id="ylz1b4MlOkDqMDgzkdlP-20" value="Analytics&amp;nbsp;&lt;br&gt;Engine" style="whiteSpace=wrap;html=1;aspect=fixed;" vertex="1" parent="1">
          <mxGeometry x="440" y="470" width="70" height="70" as="geometry" />
        </mxCell>
        <mxCell id="ylz1b4MlOkDqMDgzkdlP-22" value="Text API" style="whiteSpace=wrap;html=1;aspect=fixed;" vertex="1" parent="1">
          <mxGeometry x="310" y="470" width="70" height="70" as="geometry" />
        </mxCell>
        <mxCell id="ylz1b4MlOkDqMDgzkdlP-26" value="Parsing&lt;br&gt;Engine" style="whiteSpace=wrap;html=1;aspect=fixed;" vertex="1" parent="1">
          <mxGeometry x="447.5" y="380" width="55" height="55" as="geometry" />
        </mxCell>
        <mxCell id="ylz1b4MlOkDqMDgzkdlP-27" value="" style="endArrow=classic;startArrow=classic;html=1;entryX=0.5;entryY=1;entryDx=0;entryDy=0;exitX=0.5;exitY=0;exitDx=0;exitDy=0;" edge="1" parent="1" source="ylz1b4MlOkDqMDgzkdlP-20" target="ylz1b4MlOkDqMDgzkdlP-26">
          <mxGeometry width="50" height="50" relative="1" as="geometry">
            <mxPoint x="460" y="490" as="sourcePoint" />
            <mxPoint x="510" y="440" as="targetPoint" />
          </mxGeometry>
        </mxCell>
        <mxCell id="ylz1b4MlOkDqMDgzkdlP-28" value="" style="endArrow=classic;html=1;exitX=0.5;exitY=0;exitDx=0;exitDy=0;exitPerimeter=0;entryX=0.75;entryY=1;entryDx=0;entryDy=0;" edge="1" parent="1" source="ylz1b4MlOkDqMDgzkdlP-12" target="ylz1b4MlOkDqMDgzkdlP-20">
          <mxGeometry width="50" height="50" relative="1" as="geometry">
            <mxPoint x="400" y="470" as="sourcePoint" />
            <mxPoint x="450" y="420" as="targetPoint" />
            <Array as="points">
              <mxPoint x="515" y="600" />
              <mxPoint x="493" y="600" />
            </Array>
          </mxGeometry>
        </mxCell>
        <mxCell id="ylz1b4MlOkDqMDgzkdlP-29" value="" style="endArrow=classic;startArrow=classic;html=1;exitX=1;exitY=0.5;exitDx=0;exitDy=0;entryX=0;entryY=0.5;entryDx=0;entryDy=0;" edge="1" parent="1" source="ylz1b4MlOkDqMDgzkdlP-20" target="ylz1b4MlOkDqMDgzkdlP-18">
          <mxGeometry width="50" height="50" relative="1" as="geometry">
            <mxPoint x="520" y="530" as="sourcePoint" />
            <mxPoint x="570" y="480" as="targetPoint" />
          </mxGeometry>
        </mxCell>
        <mxCell id="ylz1b4MlOkDqMDgzkdlP-30" value="Corrections" style="shape=cylinder3;whiteSpace=wrap;html=1;boundedLbl=1;backgroundOutline=1;size=15;" vertex="1" parent="1">
          <mxGeometry x="690" y="367.5" width="70" height="80" as="geometry" />
        </mxCell>
        <mxCell id="ylz1b4MlOkDqMDgzkdlP-31" value="Historical&lt;br&gt;Corrections" style="rhombus;whiteSpace=wrap;html=1;" vertex="1" parent="1">
          <mxGeometry x="540" y="367.5" width="90" height="80" as="geometry" />
        </mxCell>
        <mxCell id="ylz1b4MlOkDqMDgzkdlP-35" value="" style="endArrow=classic;startArrow=classic;html=1;exitX=1;exitY=0.25;exitDx=0;exitDy=0;entryX=0.5;entryY=1;entryDx=0;entryDy=0;" edge="1" parent="1" source="ylz1b4MlOkDqMDgzkdlP-20" target="ylz1b4MlOkDqMDgzkdlP-31">
          <mxGeometry width="50" height="50" relative="1" as="geometry">
            <mxPoint x="520" y="655" as="sourcePoint" />
            <mxPoint x="580" y="655" as="targetPoint" />
            <Array as="points">
              <mxPoint x="585" y="488" />
            </Array>
          </mxGeometry>
        </mxCell>
        <mxCell id="ylz1b4MlOkDqMDgzkdlP-36" value="" style="endArrow=classic;startArrow=classic;html=1;exitX=1;exitY=0.5;exitDx=0;exitDy=0;entryX=0;entryY=0.5;entryDx=0;entryDy=0;entryPerimeter=0;" edge="1" parent="1" source="ylz1b4MlOkDqMDgzkdlP-31" target="ylz1b4MlOkDqMDgzkdlP-30">
          <mxGeometry width="50" height="50" relative="1" as="geometry">
            <mxPoint x="630" y="420" as="sourcePoint" />
            <mxPoint x="680" y="370" as="targetPoint" />
          </mxGeometry>
        </mxCell>
        <mxCell id="ylz1b4MlOkDqMDgzkdlP-37" value="ML Engine" style="whiteSpace=wrap;html=1;aspect=fixed;" vertex="1" parent="1">
          <mxGeometry x="560" y="590" width="70" height="70" as="geometry" />
        </mxCell>
        <mxCell id="ylz1b4MlOkDqMDgzkdlP-21" value="Fill out&lt;br&gt;form" style="shape=process;whiteSpace=wrap;html=1;backgroundOutline=1;" vertex="1" parent="1">
          <mxGeometry x="115" y="340" width="80" height="60" as="geometry" />
        </mxCell>
        <mxCell id="ylz1b4MlOkDqMDgzkdlP-38" value="" style="endArrow=classic;startArrow=classic;html=1;exitX=0.5;exitY=0;exitDx=0;exitDy=0;entryX=0.5;entryY=1;entryDx=0;entryDy=0;" edge="1" parent="1" source="ylz1b4MlOkDqMDgzkdlP-1" target="ylz1b4MlOkDqMDgzkdlP-21">
          <mxGeometry width="50" height="50" relative="1" as="geometry">
            <mxPoint x="145" y="370" as="sourcePoint" />
            <mxPoint x="230" y="370" as="targetPoint" />
          </mxGeometry>
        </mxCell>
        <mxCell id="ylz1b4MlOkDqMDgzkdlP-39" value="" style="endArrow=classic;startArrow=classic;html=1;exitX=1;exitY=0.5;exitDx=0;exitDy=0;entryX=0;entryY=0.5;entryDx=0;entryDy=0;" edge="1" parent="1" source="ylz1b4MlOkDqMDgzkdlP-22" target="ylz1b4MlOkDqMDgzkdlP-20">
          <mxGeometry width="50" height="50" relative="1" as="geometry">
            <mxPoint x="400" y="530" as="sourcePoint" />
            <mxPoint x="450" y="480" as="targetPoint" />
          </mxGeometry>
        </mxCell>
        <mxCell id="ylz1b4MlOkDqMDgzkdlP-40" value="" style="endArrow=classic;startArrow=classic;html=1;entryX=1;entryY=0.75;entryDx=0;entryDy=0;exitX=0.5;exitY=0;exitDx=0;exitDy=0;" edge="1" parent="1" source="ylz1b4MlOkDqMDgzkdlP-37" target="ylz1b4MlOkDqMDgzkdlP-20">
          <mxGeometry width="50" height="50" relative="1" as="geometry">
            <mxPoint x="600" y="600" as="sourcePoint" />
            <mxPoint x="650" y="550" as="targetPoint" />
            <Array as="points">
              <mxPoint x="595" y="523" />
            </Array>
          </mxGeometry>
        </mxCell>
        <mxCell id="ylz1b4MlOkDqMDgzkdlP-42" value="Raw Text" style="text;html=1;strokeColor=none;fillColor=none;align=center;verticalAlign=middle;whiteSpace=wrap;rounded=0;" vertex="1" parent="1">
          <mxGeometry x="240" y="590" width="70" height="20" as="geometry" />
        </mxCell>
        <mxCell id="ylz1b4MlOkDqMDgzkdlP-43" value="" style="endArrow=classic;html=1;entryX=0.5;entryY=0;entryDx=0;entryDy=0;exitX=0.5;exitY=1;exitDx=0;exitDy=0;" edge="1" parent="1" source="ylz1b4MlOkDqMDgzkdlP-1" target="ylz1b4MlOkDqMDgzkdlP-19">
          <mxGeometry width="50" height="50" relative="1" as="geometry">
            <mxPoint x="400" y="440" as="sourcePoint" />
            <mxPoint x="450" y="390" as="targetPoint" />
          </mxGeometry>
        </mxCell>
        <mxCell id="ylz1b4MlOkDqMDgzkdlP-46" value="" style="endArrow=classic;html=1;entryX=1;entryY=0.5;entryDx=0;entryDy=0;exitX=0;exitY=0.5;exitDx=0;exitDy=0;" edge="1" parent="1" source="ylz1b4MlOkDqMDgzkdlP-22" target="ylz1b4MlOkDqMDgzkdlP-1">
          <mxGeometry width="50" height="50" relative="1" as="geometry">
            <mxPoint x="400" y="440" as="sourcePoint" />
            <mxPoint x="450" y="390" as="targetPoint" />
          </mxGeometry>
        </mxCell>
        <mxCell id="ylz1b4MlOkDqMDgzkdlP-47" value="Claims" style="shape=cylinder3;whiteSpace=wrap;html=1;boundedLbl=1;backgroundOutline=1;size=15;" vertex="1" parent="1">
          <mxGeometry x="400" y="690" width="67.5" height="60" as="geometry" />
        </mxCell>
        <mxCell id="ylz1b4MlOkDqMDgzkdlP-49" value="" style="endArrow=classic;html=1;exitX=0.5;exitY=0;exitDx=0;exitDy=0;exitPerimeter=0;entryX=0.25;entryY=1;entryDx=0;entryDy=0;" edge="1" parent="1" source="ylz1b4MlOkDqMDgzkdlP-47" target="ylz1b4MlOkDqMDgzkdlP-20">
          <mxGeometry width="50" height="50" relative="1" as="geometry">
            <mxPoint x="503.5" y="710" as="sourcePoint" />
            <mxPoint x="502.5" y="550" as="targetPoint" />
            <Array as="points">
              <mxPoint x="434" y="600" />
              <mxPoint x="458" y="600" />
            </Array>
          </mxGeometry>
        </mxCell>
        <mxCell id="ylz1b4MlOkDqMDgzkdlP-50" value="" style="endArrow=classic;html=1;exitX=0.75;exitY=1;exitDx=0;exitDy=0;entryX=0.5;entryY=1;entryDx=0;entryDy=0;entryPerimeter=0;" edge="1" parent="1" source="ylz1b4MlOkDqMDgzkdlP-11" target="ylz1b4MlOkDqMDgzkdlP-47">
          <mxGeometry width="50" height="50" relative="1" as="geometry">
            <mxPoint x="400" y="650" as="sourcePoint" />
            <mxPoint x="450" y="600" as="targetPoint" />
            <Array as="points">
              <mxPoint x="173" y="810" />
              <mxPoint x="434" y="810" />
            </Array>
          </mxGeometry>
        </mxCell>
        <mxCell id="ylz1b4MlOkDqMDgzkdlP-52" value="" style="endArrow=classic;html=1;exitX=0.25;exitY=1;exitDx=0;exitDy=0;entryX=0.5;entryY=1;entryDx=0;entryDy=0;entryPerimeter=0;" edge="1" parent="1" source="ylz1b4MlOkDqMDgzkdlP-11" target="ylz1b4MlOkDqMDgzkdlP-12">
          <mxGeometry width="50" height="50" relative="1" as="geometry">
            <mxPoint x="182.5" y="760" as="sourcePoint" />
            <mxPoint x="443.75" y="760" as="targetPoint" />
            <Array as="points">
              <mxPoint x="138" y="840" />
              <mxPoint x="515" y="840" />
            </Array>
          </mxGeometry>
        </mxCell>
        <mxCell id="ylz1b4MlOkDqMDgzkdlP-53" value="form_values" style="shape=table;startSize=30;container=1;collapsible=1;childLayout=tableLayout;fixedRows=1;rowLines=0;fontStyle=1;align=center;resizeLast=1;" vertex="1" parent="1">
          <mxGeometry x="530" y="10" width="250" height="150" as="geometry" />
        </mxCell>
        <mxCell id="ylz1b4MlOkDqMDgzkdlP-54" value="" style="shape=partialRectangle;collapsible=0;dropTarget=0;pointerEvents=0;fillColor=none;points=[[0,0.5],[1,0.5]];portConstraint=eastwest;top=0;left=0;right=0;bottom=1;" vertex="1" parent="ylz1b4MlOkDqMDgzkdlP-53">
          <mxGeometry y="30" width="250" height="30" as="geometry" />
        </mxCell>
        <mxCell id="ylz1b4MlOkDqMDgzkdlP-55" value="PK" style="shape=partialRectangle;overflow=hidden;connectable=0;fillColor=none;top=0;left=0;bottom=0;right=0;fontStyle=1;" vertex="1" parent="ylz1b4MlOkDqMDgzkdlP-54">
          <mxGeometry width="30" height="30" as="geometry" />
        </mxCell>
        <mxCell id="ylz1b4MlOkDqMDgzkdlP-56" value="doc_idÂ int NOT NULL " style="shape=partialRectangle;overflow=hidden;connectable=0;fillColor=none;top=0;left=0;bottom=0;right=0;align=left;spacingLeft=6;fontStyle=5;" vertex="1" parent="ylz1b4MlOkDqMDgzkdlP-54">
          <mxGeometry x="30" width="220" height="30" as="geometry" />
        </mxCell>
        <mxCell id="ylz1b4MlOkDqMDgzkdlP-57" value="" style="shape=partialRectangle;collapsible=0;dropTarget=0;pointerEvents=0;fillColor=none;points=[[0,0.5],[1,0.5]];portConstraint=eastwest;top=0;left=0;right=0;bottom=0;" vertex="1" parent="ylz1b4MlOkDqMDgzkdlP-53">
          <mxGeometry y="60" width="250" height="30" as="geometry" />
        </mxCell>
        <mxCell id="ylz1b4MlOkDqMDgzkdlP-58" value="FK1" style="shape=partialRectangle;overflow=hidden;connectable=0;fillColor=none;top=0;left=0;bottom=0;right=0;" vertex="1" parent="ylz1b4MlOkDqMDgzkdlP-57">
          <mxGeometry width="30" height="30" as="geometry" />
        </mxCell>
        <mxCell id="ylz1b4MlOkDqMDgzkdlP-59" value="document_name string NOT NULL" style="shape=partialRectangle;overflow=hidden;connectable=0;fillColor=none;top=0;left=0;bottom=0;right=0;align=left;spacingLeft=6;" vertex="1" parent="ylz1b4MlOkDqMDgzkdlP-57">
          <mxGeometry x="30" width="220" height="30" as="geometry" />
        </mxCell>
        <mxCell id="ylz1b4MlOkDqMDgzkdlP-60" value="" style="shape=partialRectangle;collapsible=0;dropTarget=0;pointerEvents=0;fillColor=none;points=[[0,0.5],[1,0.5]];portConstraint=eastwest;top=0;left=0;right=0;bottom=0;" vertex="1" parent="ylz1b4MlOkDqMDgzkdlP-53">
          <mxGeometry y="90" width="250" height="30" as="geometry" />
        </mxCell>
        <mxCell id="ylz1b4MlOkDqMDgzkdlP-61" value="" style="shape=partialRectangle;overflow=hidden;connectable=0;fillColor=none;top=0;left=0;bottom=0;right=0;" vertex="1" parent="ylz1b4MlOkDqMDgzkdlP-60">
          <mxGeometry width="30" height="30" as="geometry" />
        </mxCell>
        <mxCell id="ylz1b4MlOkDqMDgzkdlP-62" value="claim_reference TBD NOT NULL" style="shape=partialRectangle;overflow=hidden;connectable=0;fillColor=none;top=0;left=0;bottom=0;right=0;align=left;spacingLeft=6;" vertex="1" parent="ylz1b4MlOkDqMDgzkdlP-60">
          <mxGeometry x="30" width="220" height="30" as="geometry" />
        </mxCell>
      </root>
    </mxGraphModel>
  </diagram>
</mxfile>
